<mxfile host="drawio-plugin" modified="2022-01-09T07:12:38.629Z" agent="5.0 (Windows NT 6.2; Win64; x64) AppleWebKit/537.36 (KHTML, like Gecko) Chrome/89.0.4389.114 Safari/537.36" etag="o8kSRIFhZGE4gkpi-NY3" version="14.7.4" type="embed"><diagram id="5awU8p3pOi3QWaohAjOB" name="Page-1"><mxGraphModel dx="1980" dy="743" grid="1" gridSize="10" guides="1" tooltips="1" connect="1" arrows="1" fold="1" page="1" pageScale="1" pageWidth="850" pageHeight="1100" math="0" shadow="0"><root><mxCell id="kCqwqWAarttR0PidJmRG-0"/><mxCell id="kCqwqWAarttR0PidJmRG-1" parent="kCqwqWAarttR0PidJmRG-0"/><mxCell id="CiXj9nE7gdFZ2h4EE39t-13" value="2" style="edgeStyle=orthogonalEdgeStyle;curved=0;rounded=1;sketch=0;orthogonalLoop=1;jettySize=auto;html=1;exitX=0.25;exitY=0;exitDx=0;exitDy=0;" parent="kCqwqWAarttR0PidJmRG-1" source="kCqwqWAarttR0PidJmRG-5" target="kCqwqWAarttR0PidJmRG-3" edge="1"><mxGeometry relative="1" as="geometry"/></mxCell><mxCell id="kCqwqWAarttR0PidJmRG-3" value="" style="rounded=1;whiteSpace=wrap;html=1;shadow=0;sketch=0;gradientColor=none;strokeColor=#CC0000;fillColor=none;" parent="kCqwqWAarttR0PidJmRG-1" vertex="1"><mxGeometry x="-10" y="80" width="130" height="60" as="geometry"/></mxCell><mxCell id="CiXj9nE7gdFZ2h4EE39t-11" value="1" style="edgeStyle=orthogonalEdgeStyle;curved=0;rounded=1;sketch=0;orthogonalLoop=1;jettySize=auto;html=1;entryX=0.25;entryY=1;entryDx=0;entryDy=0;" parent="kCqwqWAarttR0PidJmRG-1" source="kCqwqWAarttR0PidJmRG-4" target="kCqwqWAarttR0PidJmRG-5" edge="1"><mxGeometry relative="1" as="geometry"/></mxCell><mxCell id="kCqwqWAarttR0PidJmRG-4" value="" style="rounded=1;whiteSpace=wrap;html=1;shadow=0;sketch=0;gradientColor=none;strokeColor=#CC0000;fillColor=none;" parent="kCqwqWAarttR0PidJmRG-1" vertex="1"><mxGeometry x="-10" y="150" width="130" height="70" as="geometry"/></mxCell><mxCell id="CiXj9nE7gdFZ2h4EE39t-3" style="edgeStyle=orthogonalEdgeStyle;curved=0;rounded=1;sketch=0;orthogonalLoop=1;jettySize=auto;html=1;exitX=0.5;exitY=1;exitDx=0;exitDy=0;entryX=0.5;entryY=0;entryDx=0;entryDy=0;" parent="kCqwqWAarttR0PidJmRG-1" source="kCqwqWAarttR0PidJmRG-5" target="kCqwqWAarttR0PidJmRG-6" edge="1"><mxGeometry relative="1" as="geometry"/></mxCell><mxCell id="kCqwqWAarttR0PidJmRG-5" value="executor-&lt;br&gt;service" style="rounded=1;whiteSpace=wrap;html=1;shadow=0;sketch=0;gradientColor=none;strokeColor=#FFFFFF;" parent="kCqwqWAarttR0PidJmRG-1" vertex="1"><mxGeometry x="170" y="130" width="60" height="30" as="geometry"/></mxCell><mxCell id="CiXj9nE7gdFZ2h4EE39t-4" style="edgeStyle=orthogonalEdgeStyle;curved=0;rounded=1;sketch=0;orthogonalLoop=1;jettySize=auto;html=1;" parent="kCqwqWAarttR0PidJmRG-1" source="kCqwqWAarttR0PidJmRG-6" target="kCqwqWAarttR0PidJmRG-10" edge="1"><mxGeometry relative="1" as="geometry"/></mxCell><mxCell id="kCqwqWAarttR0PidJmRG-6" value="logger" style="rounded=1;whiteSpace=wrap;html=1;shadow=0;sketch=0;gradientColor=none;strokeColor=#FFFFFF;" parent="kCqwqWAarttR0PidJmRG-1" vertex="1"><mxGeometry x="170" y="210" width="60" height="30" as="geometry"/></mxCell><mxCell id="kCqwqWAarttR0PidJmRG-7" value="Rest-controller" style="rounded=1;whiteSpace=wrap;html=1;shadow=0;sketch=0;gradientColor=none;strokeColor=#FFFFFF;" parent="kCqwqWAarttR0PidJmRG-1" vertex="1"><mxGeometry x="340" y="130" width="60" height="30" as="geometry"/></mxCell><mxCell id="kCqwqWAarttR0PidJmRG-8" value="scheduler" style="rounded=1;whiteSpace=wrap;html=1;shadow=0;sketch=0;gradientColor=none;strokeColor=#FFFFFF;" parent="kCqwqWAarttR0PidJmRG-1" vertex="1"><mxGeometry x="250" y="130" width="60" height="30" as="geometry"/></mxCell><mxCell id="kCqwqWAarttR0PidJmRG-9" value="" style="rounded=1;whiteSpace=wrap;html=1;shadow=0;sketch=0;gradientColor=none;strokeColor=#FFFFFF;" parent="kCqwqWAarttR0PidJmRG-1" vertex="1"><mxGeometry x="340" y="260" width="60" height="30" as="geometry"/></mxCell><mxCell id="CiXj9nE7gdFZ2h4EE39t-7" style="edgeStyle=orthogonalEdgeStyle;curved=0;rounded=1;sketch=0;orthogonalLoop=1;jettySize=auto;html=1;entryX=0.5;entryY=0;entryDx=0;entryDy=0;" parent="kCqwqWAarttR0PidJmRG-1" source="kCqwqWAarttR0PidJmRG-10" target="CiXj9nE7gdFZ2h4EE39t-5" edge="1"><mxGeometry relative="1" as="geometry"/></mxCell><mxCell id="kCqwqWAarttR0PidJmRG-10" value="dao" style="rounded=1;whiteSpace=wrap;html=1;shadow=0;sketch=0;gradientColor=none;strokeColor=#FFFFFF;" parent="kCqwqWAarttR0PidJmRG-1" vertex="1"><mxGeometry x="170" y="260" width="60" height="30" as="geometry"/></mxCell><mxCell id="CiXj9nE7gdFZ2h4EE39t-9" style="edgeStyle=orthogonalEdgeStyle;curved=0;rounded=1;sketch=0;orthogonalLoop=1;jettySize=auto;html=1;entryX=0.5;entryY=0;entryDx=0;entryDy=0;" parent="kCqwqWAarttR0PidJmRG-1" source="CiXj9nE7gdFZ2h4EE39t-0" target="kCqwqWAarttR0PidJmRG-9" edge="1"><mxGeometry relative="1" as="geometry"/></mxCell><mxCell id="CiXj9nE7gdFZ2h4EE39t-0" value="DB" style="shape=datastore;whiteSpace=wrap;html=1;" parent="kCqwqWAarttR0PidJmRG-1" vertex="1"><mxGeometry x="290" y="200" width="40" height="40" as="geometry"/></mxCell><mxCell id="CiXj9nE7gdFZ2h4EE39t-1" value="" style="endArrow=classic;startArrow=classic;html=1;entryX=0;entryY=0.5;entryDx=0;entryDy=0;exitX=1;exitY=0.5;exitDx=0;exitDy=0;" parent="kCqwqWAarttR0PidJmRG-1" source="kCqwqWAarttR0PidJmRG-8" target="kCqwqWAarttR0PidJmRG-7" edge="1"><mxGeometry width="50" height="50" relative="1" as="geometry"><mxPoint x="240" y="220" as="sourcePoint"/><mxPoint x="290" y="170" as="targetPoint"/></mxGeometry></mxCell><mxCell id="CiXj9nE7gdFZ2h4EE39t-2" value="" style="endArrow=classic;startArrow=classic;html=1;entryX=0.5;entryY=1;entryDx=0;entryDy=0;exitX=0.5;exitY=0;exitDx=0;exitDy=0;" parent="kCqwqWAarttR0PidJmRG-1" source="CiXj9nE7gdFZ2h4EE39t-0" target="kCqwqWAarttR0PidJmRG-8" edge="1"><mxGeometry width="50" height="50" relative="1" as="geometry"><mxPoint x="270" y="210" as="sourcePoint"/><mxPoint x="320" y="160" as="targetPoint"/></mxGeometry></mxCell><mxCell id="CiXj9nE7gdFZ2h4EE39t-5" value="&lt;font color=&quot;#00ff00&quot;&gt;LOG&lt;/font&gt;" style="shape=datastore;whiteSpace=wrap;html=1;" parent="kCqwqWAarttR0PidJmRG-1" vertex="1"><mxGeometry x="180" y="320" width="40" height="40" as="geometry"/></mxCell><mxCell id="CiXj9nE7gdFZ2h4EE39t-10" value="" style="endArrow=classic;startArrow=classic;html=1;entryX=0;entryY=0.5;entryDx=0;entryDy=0;exitX=1;exitY=0.5;exitDx=0;exitDy=0;" parent="kCqwqWAarttR0PidJmRG-1" source="kCqwqWAarttR0PidJmRG-5" target="kCqwqWAarttR0PidJmRG-8" edge="1"><mxGeometry width="50" height="50" relative="1" as="geometry"><mxPoint x="220" y="190" as="sourcePoint"/><mxPoint x="270" y="140" as="targetPoint"/></mxGeometry></mxCell><mxCell id="CiXj9nE7gdFZ2h4EE39t-23" style="edgeStyle=orthogonalEdgeStyle;curved=0;rounded=1;sketch=0;orthogonalLoop=1;jettySize=auto;html=1;entryX=0;entryY=0.5;entryDx=0;entryDy=0;" parent="kCqwqWAarttR0PidJmRG-1" source="CiXj9nE7gdFZ2h4EE39t-14" target="CiXj9nE7gdFZ2h4EE39t-18" edge="1"><mxGeometry relative="1" as="geometry"><Array as="points"><mxPoint x="15" y="185"/></Array></mxGeometry></mxCell><mxCell id="CiXj9nE7gdFZ2h4EE39t-14" value="py" style="rounded=1;whiteSpace=wrap;html=1;shadow=0;sketch=0;strokeColor=#FFFFFF;fillColor=none;gradientColor=none;" parent="kCqwqWAarttR0PidJmRG-1" vertex="1"><mxGeometry y="160" width="30" height="20" as="geometry"/></mxCell><mxCell id="CiXj9nE7gdFZ2h4EE39t-21" style="edgeStyle=orthogonalEdgeStyle;curved=0;rounded=1;sketch=0;orthogonalLoop=1;jettySize=auto;html=1;entryX=0;entryY=1;entryDx=0;entryDy=0;" parent="kCqwqWAarttR0PidJmRG-1" source="CiXj9nE7gdFZ2h4EE39t-15" target="CiXj9nE7gdFZ2h4EE39t-18" edge="1"><mxGeometry relative="1" as="geometry"/></mxCell><mxCell id="CiXj9nE7gdFZ2h4EE39t-15" value="язык" style="rounded=1;whiteSpace=wrap;html=1;shadow=0;sketch=0;strokeColor=#FFFFFF;fillColor=none;gradientColor=none;" parent="kCqwqWAarttR0PidJmRG-1" vertex="1"><mxGeometry x="40" y="190" width="30" height="20" as="geometry"/></mxCell><mxCell id="CiXj9nE7gdFZ2h4EE39t-24" style="edgeStyle=orthogonalEdgeStyle;curved=0;rounded=1;sketch=0;orthogonalLoop=1;jettySize=auto;html=1;entryX=0;entryY=0.5;entryDx=0;entryDy=0;" parent="kCqwqWAarttR0PidJmRG-1" source="CiXj9nE7gdFZ2h4EE39t-16" target="CiXj9nE7gdFZ2h4EE39t-18" edge="1"><mxGeometry relative="1" as="geometry"><Array as="points"><mxPoint x="15" y="185"/></Array></mxGeometry></mxCell><mxCell id="CiXj9nE7gdFZ2h4EE39t-16" value="php" style="rounded=1;whiteSpace=wrap;html=1;shadow=0;sketch=0;strokeColor=#FFFFFF;fillColor=none;gradientColor=none;" parent="kCqwqWAarttR0PidJmRG-1" vertex="1"><mxGeometry y="190" width="30" height="20" as="geometry"/></mxCell><mxCell id="CiXj9nE7gdFZ2h4EE39t-22" style="edgeStyle=orthogonalEdgeStyle;curved=0;rounded=1;sketch=0;orthogonalLoop=1;jettySize=auto;html=1;entryX=0;entryY=0;entryDx=0;entryDy=0;" parent="kCqwqWAarttR0PidJmRG-1" source="CiXj9nE7gdFZ2h4EE39t-17" target="CiXj9nE7gdFZ2h4EE39t-18" edge="1"><mxGeometry relative="1" as="geometry"/></mxCell><mxCell id="CiXj9nE7gdFZ2h4EE39t-17" value="др." style="rounded=1;whiteSpace=wrap;html=1;shadow=0;sketch=0;strokeColor=#FFFFFF;fillColor=none;gradientColor=none;" parent="kCqwqWAarttR0PidJmRG-1" vertex="1"><mxGeometry x="40" y="160" width="30" height="20" as="geometry"/></mxCell><mxCell id="CiXj9nE7gdFZ2h4EE39t-18" value="&lt;font color=&quot;#00ff00&quot;&gt;do&lt;/font&gt;" style="rounded=1;whiteSpace=wrap;html=1;shadow=0;sketch=0;strokeColor=#FFFFFF;fillColor=none;gradientColor=none;" parent="kCqwqWAarttR0PidJmRG-1" vertex="1"><mxGeometry x="90" y="170" width="30" height="30" as="geometry"/></mxCell><mxCell id="CiXj9nE7gdFZ2h4EE39t-25" value="" style="rounded=1;whiteSpace=wrap;html=1;shadow=0;sketch=0;strokeColor=#FFFFFF;fillColor=none;gradientColor=none;align=right;" parent="kCqwqWAarttR0PidJmRG-1" vertex="1"><mxGeometry x="-10" y="230" width="100" height="100" as="geometry"/></mxCell><mxCell id="CiXj9nE7gdFZ2h4EE39t-27" value="" style="endArrow=classic;startArrow=classic;html=1;entryX=0.75;entryY=0;entryDx=0;entryDy=0;exitX=0.5;exitY=1;exitDx=0;exitDy=0;shadow=0;gradientColor=#97d077;fillColor=#d5e8d4;strokeColor=#00FF00;" parent="kCqwqWAarttR0PidJmRG-1" source="CiXj9nE7gdFZ2h4EE39t-18" target="CiXj9nE7gdFZ2h4EE39t-25" edge="1"><mxGeometry width="50" height="50" relative="1" as="geometry"><mxPoint x="-20" y="290" as="sourcePoint"/><mxPoint x="30" y="240" as="targetPoint"/></mxGeometry></mxCell><mxCell id="CiXj9nE7gdFZ2h4EE39t-28" value="py" style="rounded=1;whiteSpace=wrap;html=1;shadow=0;sketch=0;strokeColor=#FFFFFF;fillColor=none;gradientColor=none;" parent="kCqwqWAarttR0PidJmRG-1" vertex="1"><mxGeometry y="240" width="30" height="20" as="geometry"/></mxCell><mxCell id="CiXj9nE7gdFZ2h4EE39t-29" value="" style="rounded=1;whiteSpace=wrap;html=1;shadow=0;sketch=0;fillColor=none;gradientColor=none;strokeColor=#CC0000;" parent="kCqwqWAarttR0PidJmRG-1" vertex="1"><mxGeometry x="40" y="240" width="30" height="20" as="geometry"/></mxCell><mxCell id="CiXj9nE7gdFZ2h4EE39t-30" value="java" style="rounded=1;whiteSpace=wrap;html=1;shadow=0;sketch=0;strokeColor=#FFFFFF;fillColor=none;gradientColor=none;" parent="kCqwqWAarttR0PidJmRG-1" vertex="1"><mxGeometry x="20" y="270" width="30" height="20" as="geometry"/></mxCell><mxCell id="CiXj9nE7gdFZ2h4EE39t-44" style="edgeStyle=orthogonalEdgeStyle;curved=0;rounded=1;sketch=0;orthogonalLoop=1;jettySize=auto;html=1;entryX=0.5;entryY=1;entryDx=0;entryDy=0;shadow=0;strokeColor=#FFFFFF;" parent="kCqwqWAarttR0PidJmRG-1" source="CiXj9nE7gdFZ2h4EE39t-31" target="CiXj9nE7gdFZ2h4EE39t-30" edge="1"><mxGeometry relative="1" as="geometry"/></mxCell><mxCell id="CiXj9nE7gdFZ2h4EE39t-31" value="code" style="rounded=1;whiteSpace=wrap;html=1;shadow=0;sketch=0;strokeColor=#FFFFFF;fillColor=none;gradientColor=none;" parent="kCqwqWAarttR0PidJmRG-1" vertex="1"><mxGeometry x="20" y="300" width="30" height="20" as="geometry"/></mxCell><mxCell id="CiXj9nE7gdFZ2h4EE39t-34" value="" style="endArrow=classic;html=1;shadow=0;exitX=1;exitY=0.5;exitDx=0;exitDy=0;strokeColor=#FFFFFF;" parent="kCqwqWAarttR0PidJmRG-1" source="CiXj9nE7gdFZ2h4EE39t-30" edge="1"><mxGeometry width="50" height="50" relative="1" as="geometry"><mxPoint x="90" y="280" as="sourcePoint"/><mxPoint x="140" y="280" as="targetPoint"/></mxGeometry></mxCell><mxCell id="CiXj9nE7gdFZ2h4EE39t-46" value="do" style="text;html=1;strokeColor=none;fillColor=none;align=center;verticalAlign=middle;whiteSpace=wrap;rounded=0;shadow=0;sketch=0;fontColor=#00FF00;" parent="kCqwqWAarttR0PidJmRG-1" vertex="1"><mxGeometry x="50" y="300" width="40" height="20" as="geometry"/></mxCell><mxCell id="CiXj9nE7gdFZ2h4EE39t-47" value="" style="endArrow=classic;startArrow=classic;html=1;shadow=0;fontColor=#00FF00;strokeColor=#FFFFFF;entryX=0.75;entryY=1;entryDx=0;entryDy=0;" parent="kCqwqWAarttR0PidJmRG-1" target="CiXj9nE7gdFZ2h4EE39t-29" edge="1"><mxGeometry width="50" height="50" relative="1" as="geometry"><mxPoint x="50" y="280" as="sourcePoint"/><mxPoint x="150" y="220" as="targetPoint"/><Array as="points"><mxPoint x="63" y="280"/></Array></mxGeometry></mxCell><mxCell id="CiXj9nE7gdFZ2h4EE39t-48" value="" style="endArrow=classic;startArrow=classic;html=1;shadow=0;fontColor=#00FF00;strokeColor=#FFFFFF;entryX=0.25;entryY=1;entryDx=0;entryDy=0;exitX=0;exitY=0.5;exitDx=0;exitDy=0;" parent="kCqwqWAarttR0PidJmRG-1" source="CiXj9nE7gdFZ2h4EE39t-30" target="CiXj9nE7gdFZ2h4EE39t-28" edge="1"><mxGeometry width="50" height="50" relative="1" as="geometry"><mxPoint x="50" y="240" as="sourcePoint"/><mxPoint x="100" y="190" as="targetPoint"/><Array as="points"><mxPoint x="8" y="280"/></Array></mxGeometry></mxCell><mxCell id="CiXj9nE7gdFZ2h4EE39t-63" style="edgeStyle=orthogonalEdgeStyle;curved=0;rounded=1;sketch=0;orthogonalLoop=1;jettySize=auto;html=1;exitX=1;exitY=0.5;exitDx=0;exitDy=0;entryX=0;entryY=0.5;entryDx=0;entryDy=0;shadow=0;fontColor=#00FF00;strokeColor=#FFFFFF;" parent="kCqwqWAarttR0PidJmRG-1" source="CiXj9nE7gdFZ2h4EE39t-49" target="CiXj9nE7gdFZ2h4EE39t-51" edge="1"><mxGeometry relative="1" as="geometry"/></mxCell><mxCell id="CiXj9nE7gdFZ2h4EE39t-49" value="" style="rounded=1;whiteSpace=wrap;html=1;shadow=0;sketch=0;fontColor=#00FF00;fillColor=none;gradientColor=none;align=right;strokeColor=#FFFFFF;" parent="kCqwqWAarttR0PidJmRG-1" vertex="1"><mxGeometry y="100" width="70" height="30" as="geometry"/></mxCell><mxCell id="CiXj9nE7gdFZ2h4EE39t-50" value="&lt;font color=&quot;#ffffff&quot;&gt;Linux&lt;/font&gt;" style="text;html=1;strokeColor=none;fillColor=none;align=center;verticalAlign=middle;whiteSpace=wrap;rounded=0;shadow=0;sketch=0;fontColor=#00FF00;" parent="kCqwqWAarttR0PidJmRG-1" vertex="1"><mxGeometry y="80" width="30" height="20" as="geometry"/></mxCell><mxCell id="CiXj9nE7gdFZ2h4EE39t-51" value="&lt;font color=&quot;#ffffff&quot; style=&quot;font-size: 7px&quot;&gt;bash.db&lt;/font&gt;" style="rounded=1;whiteSpace=wrap;html=1;shadow=0;sketch=0;fontColor=#00FF00;fillColor=none;gradientColor=none;align=right;strokeColor=#FFFFFF;" parent="kCqwqWAarttR0PidJmRG-1" vertex="1"><mxGeometry x="80" y="100" width="30" height="30" as="geometry"/></mxCell><mxCell id="CiXj9nE7gdFZ2h4EE39t-52" value="&lt;font color=&quot;#ffffff&quot; style=&quot;font-size: 6px&quot;&gt;bash&lt;/font&gt;" style="text;html=1;strokeColor=none;fillColor=none;align=center;verticalAlign=middle;whiteSpace=wrap;rounded=0;shadow=0;sketch=0;fontColor=#00FF00;" parent="kCqwqWAarttR0PidJmRG-1" vertex="1"><mxGeometry x="-10" y="90" width="40" height="20" as="geometry"/></mxCell><mxCell id="CiXj9nE7gdFZ2h4EE39t-61" style="edgeStyle=orthogonalEdgeStyle;curved=0;rounded=1;sketch=0;orthogonalLoop=1;jettySize=auto;html=1;entryX=0;entryY=0.5;entryDx=0;entryDy=0;shadow=0;fontColor=#00FF00;strokeColor=#FFFFFF;" parent="kCqwqWAarttR0PidJmRG-1" source="CiXj9nE7gdFZ2h4EE39t-54" target="CiXj9nE7gdFZ2h4EE39t-57" edge="1"><mxGeometry relative="1" as="geometry"/></mxCell><mxCell id="CiXj9nE7gdFZ2h4EE39t-54" value="&lt;div style=&quot;text-align: justify&quot;&gt;&lt;br&gt;&lt;/div&gt;" style="rounded=1;whiteSpace=wrap;html=1;shadow=0;sketch=0;fontColor=#00FF00;strokeColor=#FFFFFF;fillColor=none;gradientColor=none;align=center;" parent="kCqwqWAarttR0PidJmRG-1" vertex="1"><mxGeometry y="110" width="20" height="10" as="geometry"/></mxCell><mxCell id="CiXj9nE7gdFZ2h4EE39t-55" value="&lt;font color=&quot;#ffffff&quot; style=&quot;font-size: 5px&quot;&gt;.bash&lt;/font&gt;" style="text;html=1;strokeColor=none;fillColor=none;align=center;verticalAlign=middle;whiteSpace=wrap;rounded=0;shadow=0;sketch=0;fontColor=#00FF00;strokeWidth=3;" parent="kCqwqWAarttR0PidJmRG-1" vertex="1"><mxGeometry x="5" y="105" width="10" height="15" as="geometry"/></mxCell><mxCell id="CiXj9nE7gdFZ2h4EE39t-57" value="" style="rounded=1;whiteSpace=wrap;html=1;shadow=0;sketch=0;fontColor=#00FF00;strokeColor=#FFFFFF;fillColor=none;gradientColor=none;align=right;" parent="kCqwqWAarttR0PidJmRG-1" vertex="1"><mxGeometry x="30" y="110" width="25" height="10" as="geometry"/></mxCell><mxCell id="CiXj9nE7gdFZ2h4EE39t-58" value="&lt;font color=&quot;#ffffff&quot; style=&quot;font-size: 5px&quot;&gt;ftos&lt;/font&gt;" style="text;html=1;strokeColor=none;fillColor=none;align=center;verticalAlign=middle;whiteSpace=wrap;rounded=0;shadow=0;sketch=0;fontColor=#00FF00;" parent="kCqwqWAarttR0PidJmRG-1" vertex="1"><mxGeometry x="22.5" y="102.5" width="40" height="20" as="geometry"/></mxCell><mxCell id="CiXj9nE7gdFZ2h4EE39t-62" value="" style="endArrow=classic;html=1;shadow=0;fontColor=#00FF00;strokeColor=#FFFFFF;exitX=1;exitY=0.5;exitDx=0;exitDy=0;" parent="kCqwqWAarttR0PidJmRG-1" source="CiXj9nE7gdFZ2h4EE39t-57" edge="1"><mxGeometry width="50" height="50" relative="1" as="geometry"><mxPoint x="30" y="140" as="sourcePoint"/><mxPoint x="60" y="115" as="targetPoint"/></mxGeometry></mxCell></root></mxGraphModel></diagram></mxfile>